<svg width="1024" height="576" viewBox="0 0 1024 576" fill="none" xmlns="http://www.w3.org/2000/svg">
<g clip-path="url(#clip0_840_1558)">
<rect width="1024" height="576" fill="white"/>
<rect width="1024" height="576" fill="#423D80"/>
<path d="M0 0H1024V576H0V0Z" fill="#8C6EF7"/>
<path d="M0 0H1024V576H0V0Z" fill="#423D80"/>
<path d="M66.0155 291.577C-144.346 383.005 -86.5947 576.678 57.0441 598.908L1021.64 607.65C1097.22 404.428 1046.32 114.452 801.64 -7.14923C458.412 -177.728 363.239 162.396 66.0155 291.577Z" fill="#242145"/>
<path d="M211.128 304.034L126.265 493.496" stroke="#686C8E" stroke-width="11"/>
<path fill-rule="evenodd" clip-rule="evenodd" d="M204.83 301.213L198.009 316.664C195.435 324.721 197.342 335.913 202.01 341.266L217.424 306.854L204.83 301.213Z" fill="black"/>
<path d="M920.511 413.073H842.466V607.962H955.511V448.073C955.511 428.743 939.841 413.073 920.511 413.073Z" fill="black"/>
<path d="M895.983 413.073H809.115V607.962H930.983V448.073C930.983 428.743 915.313 413.073 895.983 413.073Z" fill="#5865F2"/>
<path d="M699.836 443.542V443.542C657.661 459.268 610.237 450.169 576.877 419.95L524.315 372.337C514.275 363.242 501.212 358.205 487.665 358.205L477.123 358.205" stroke="url(#paint0_linear_840_1558)" stroke-width="69" stroke-linecap="round"/>
<path d="M631.169 350.99L795.938 304.864C828.834 385.899 857.175 443.102 867.839 523.771C874.515 605.306 828.194 635.033 769.281 635.033H691.597C632.754 635.033 588.349 581.626 599.091 523.771C616.997 456.448 624.581 418.621 631.169 350.99Z" fill="url(#paint1_linear_840_1558)"/>
<path d="M631.169 350.99L795.938 304.864C828.834 385.899 857.175 443.102 867.839 523.771C874.515 605.306 828.194 635.033 769.281 635.033H691.597C632.754 635.033 588.349 581.626 599.091 523.771C616.997 456.448 624.581 418.621 631.169 350.99Z" fill="#5865F2"/>
<path d="M631.169 350.99L795.938 304.864C828.834 385.899 857.175 443.102 867.839 523.771C874.515 605.306 828.194 635.033 769.281 635.033H691.597C632.754 635.033 588.349 581.626 599.091 523.771C616.997 456.448 624.581 418.621 631.169 350.99Z" fill="url(#paint2_linear_840_1558)"/>
<path d="M690.67 108.01C667.811 107.393 661.043 144.266 649.324 161.136L699.216 166.68C709.551 148.781 714.614 108.656 690.67 108.01Z" fill="#29CC7A"/>
<path d="M574.891 113.2C605.386 93.3993 626.498 163.895 671.256 161.61L599.552 191.297C576.717 185.357 539.726 136.033 574.891 113.2Z" fill="#57F287"/>
<path d="M666.215 175.092C681.558 150.4 692.106 121.153 696.9 94.7835" stroke="#06AA58" stroke-width="3"/>
<path d="M791.573 304.464C704.243 388.549 653.683 391.253 622.591 358.538L640.165 349.884L791.573 304.464Z" fill="#3543DA"/>
<path fill-rule="evenodd" clip-rule="evenodd" d="M569.563 117.528C570.389 116.726 571.281 115.945 572.239 115.188C574.356 131.084 584.909 147.793 600.639 161.155C609.005 168.262 618.791 174.382 629.458 178.898L625.616 180.489C615.691 175.983 606.577 170.136 598.697 163.441C583.233 150.305 572.369 133.774 569.563 117.528Z" fill="#29CC7A"/>
<path fill-rule="evenodd" clip-rule="evenodd" d="M514.869 226.484C509.821 242.091 514.774 260.085 524.679 296.071C534.438 331.528 539.318 349.257 551.541 360.06C556.768 364.681 563.187 368.441 569.773 370.741C585.174 376.12 602.517 371.831 637.205 363.255L637.205 363.255C669.608 355.243 699.244 347.107 731.036 337.473C753.879 330.551 769.115 325.934 779.85 319.896L856.31 285.538C866.117 281.131 871.247 270.233 868.394 259.867L838.42 150.967C835.579 140.646 825.664 133.914 815.022 135.082L731.517 144.246C718.945 144.585 703.1 148.66 679.187 154.811C648.194 162.782 619.464 170.738 588.494 179.869C553.362 190.227 535.797 195.406 525.196 207.924C520.633 213.311 517.042 219.767 514.869 226.484Z" fill="#5865F2"/>
<path d="M746.776 126.351L769.297 124.677L782.563 132.336L769.748 154.532L756.482 146.873L746.776 126.351Z" fill="#FFF2A6"/>
<path d="M772.567 126.58L879.518 188.328L866.71 210.512L759.759 148.764L770.877 147.788L766.163 137.672L777.281 136.696L772.567 126.58Z" fill="#FFC619"/>
<path fill-rule="evenodd" clip-rule="evenodd" d="M758.309 125.494L746.776 126.352L751.773 136.917C753.878 136.032 755.722 134.478 756.952 132.348C758.197 130.191 758.617 127.785 758.309 125.494Z" fill="black"/>
<rect x="874.207" y="182.537" width="9.63421" height="30.3357" rx="4.81711" transform="rotate(30 874.207 182.537)" fill="#686C8E"/>
<rect x="882.602" y="191.298" width="18.5427" height="23.6776" rx="5" transform="rotate(30 882.602 191.298)" fill="#EB459F"/>
<rect x="882.551" y="187.354" width="9.63421" height="30.3357" rx="4.81711" transform="rotate(30 882.551 187.354)" fill="#686C8E"/>
<path fill-rule="evenodd" clip-rule="evenodd" d="M775.004 136.895L777.278 136.696L776.028 134.013L863.751 186.332C864.462 186.756 864.695 187.677 864.271 188.388C863.846 189.1 862.926 189.333 862.214 188.908L775.004 136.895ZM768.036 148.037L770.874 147.787L769.87 145.631L855.666 195.166C856.383 195.58 856.629 196.497 856.215 197.215C855.8 197.932 854.883 198.178 854.166 197.764L768.036 148.037Z" fill="#E3AE0E"/>
<path d="M792.828 173.867C792.327 172.047 793.397 170.165 795.217 169.664L818.754 163.185C833.45 159.14 848.643 167.775 852.688 182.471L864.556 225.591C868.601 240.287 859.967 255.48 845.271 259.525L821.734 266.003C819.913 266.504 818.031 265.434 817.53 263.614L792.828 173.867Z" fill="url(#paint3_linear_840_1558)"/>
<path d="M797.629 191.298C797.19 189.701 798.128 188.05 799.726 187.61L822.595 181.315C828.985 179.557 835.59 183.311 837.349 189.701L847.679 227.231C849.438 233.621 845.683 240.227 839.294 241.985L816.424 248.28C814.827 248.719 813.176 247.781 812.736 246.183L797.629 191.298Z" fill="#808AFF"/>
<path d="M580.127 248.125C578.928 243.772 581.482 239.273 585.835 238.075C589.78 236.989 594.909 235.577 600.515 234.034L677.557 212.829C683.164 211.286 688.293 209.874 692.239 208.789C696.592 207.591 701.087 210.15 702.285 214.503L715.702 263.249C720.846 281.937 709.866 301.257 691.178 306.4L636.695 321.396C618.007 326.54 598.687 315.56 593.544 296.872L580.127 248.125Z" fill="#808AFF"/>
<rect x="607.247" y="292.07" width="30.7871" height="13.2877" rx="6.64387" transform="rotate(-15.3891 607.247 292.07)" fill="#5865F2"/>
<rect x="650.928" y="280.049" width="30.7871" height="13.2877" rx="6.64387" transform="rotate(-15.3891 650.928 280.049)" fill="#5865F2"/>
<circle cx="721.127" cy="193.967" r="12.6528" fill="black"/>
<circle cx="560.391" cy="238.045" r="12.6528" fill="black"/>
<path d="M774.431 302.626C775.381 280.168 753.632 268.842 744.956 277.04L724.841 298.057C738.423 294.769 744.73 298.3 748.738 305.526C753.981 314.978 765.929 317.711 772.142 308.866C773.44 307.019 774.336 304.882 774.431 302.626Z" fill="#EB459F"/>
<path d="M752.09 270.068L708.784 312.435" stroke="black" stroke-width="3" stroke-linecap="round"/>
<path d="M737.314 284.482C744.644 278.978 763.324 288.018 765.975 302.16" stroke="black" stroke-width="3" stroke-linecap="round"/>
<rect x="126.451" y="526.298" width="619.742" height="50.5846" fill="#59250E"/>
<rect width="12.2081" height="12.2081" transform="matrix(-0.932872 0.360209 0.360209 0.932872 474.73 384.968)" fill="#3543DA"/>
<rect width="12.2081" height="12.2081" transform="matrix(-0.932872 0.360209 0.360209 0.932872 463.3 389.256)" fill="#3543DA"/>
<rect width="12.2081" height="12.2081" transform="matrix(-0.932872 0.360209 0.360209 0.932872 458.902 377.869)" fill="#3543DA"/>
<rect width="12.2081" height="12.2081" transform="matrix(-0.932872 0.360209 0.360209 0.932872 447.514 382.267)" fill="#3543DA"/>
<rect width="12.2081" height="12.2081" transform="matrix(-0.932872 0.360209 0.360209 0.932872 443.114 370.877)" fill="#3543DA"/>
<rect width="12.2081" height="12.2081" transform="matrix(-0.932872 0.360209 0.360209 0.932872 431.728 375.274)" fill="#3543DA"/>
<path fill-rule="evenodd" clip-rule="evenodd" d="M789.345 357.021C812.017 368.987 820.695 397.065 808.729 419.736L799.633 436.969C770.533 492.104 713.31 526.605 650.967 526.605H585.57C559.935 526.605 537.934 511.309 537.934 485.674C537.934 460.039 559.935 442.826 585.57 442.826H650.967C678.882 442.826 704.504 418.324 717.534 393.637L726.63 376.404C738.596 353.733 766.674 345.055 789.345 357.021Z" fill="url(#paint4_linear_840_1558)"/>
<path d="M808.729 419.735L799.633 436.968C780.896 472.468 750.5 499.414 714.584 514.104" stroke="black" stroke-width="3" stroke-linecap="round"/>
<path d="M752.244 354.296C744.468 357.036 737.404 361.841 731.949 368.431C729.945 370.852 728.158 373.515 726.633 376.404L717.537 393.637C704.507 418.324 678.885 442.826 650.97 442.826H622.621" stroke="black" stroke-width="3" stroke-linecap="round"/>
<path d="M618.245 442.8L619.352 437.696H615.232L613.587 439.157L614.217 442.8H618.245Z" fill="#3543DA"/>
<rect x="470.302" y="377.488" width="31.5954" height="27.9762" rx="13.9881" transform="rotate(34.8516 470.302 377.488)" fill="#5360EE"/>
<path d="M505.426 384.961C505.899 384.281 505.732 383.346 505.052 382.873C504.372 382.399 503.438 382.567 502.964 383.246L505.426 384.961ZM489.27 405.536L488.039 404.679L489.27 405.536ZM463.342 387.481L462.111 386.624L462.111 386.624L463.342 387.481ZM479.498 366.906C479.971 366.226 479.804 365.291 479.124 364.817C478.444 364.344 477.509 364.511 477.036 365.191L479.498 366.906ZM467.279 409.473L466.421 410.704L467.279 409.473ZM502.964 383.246L488.039 404.679L490.501 406.393L505.426 384.961L502.964 383.246ZM464.573 388.338L479.498 366.906L477.036 365.191L462.111 386.624L464.573 388.338ZM468.136 408.242C461.656 403.729 460.061 394.818 464.573 388.338L462.111 386.624C456.652 394.464 458.582 405.245 466.421 410.704L468.136 408.242ZM488.039 404.679C483.527 411.159 474.616 412.754 468.136 408.242L466.421 410.704C474.261 416.163 485.042 414.233 490.501 406.393L488.039 404.679Z" fill="black"/>
<rect x="206.694" y="501.733" width="12.2081" height="12.2081" transform="rotate(90 206.694 501.733)" fill="#13844B"/>
<rect x="206.694" y="513.941" width="12.2081" height="12.2081" transform="rotate(90 206.694 513.941)" fill="#13844B"/>
<rect x="218.904" y="501.733" width="12.2081" height="12.2081" transform="rotate(90 218.904 501.733)" fill="#13844B"/>
<rect x="218.904" y="513.941" width="12.2081" height="12.2081" transform="rotate(90 218.904 513.941)" fill="#13844B"/>
<rect x="218.904" y="489.525" width="12.2081" height="12.2081" transform="rotate(90 218.904 489.525)" fill="#13844B"/>
<rect x="231.11" y="501.733" width="12.2081" height="12.2081" transform="rotate(90 231.11 501.733)" fill="#13844B"/>
<rect x="231.11" y="513.941" width="12.2081" height="12.2081" transform="rotate(90 231.11 513.941)" fill="#13844B"/>
<rect x="231.11" y="489.525" width="12.2081" height="12.2081" transform="rotate(90 231.11 489.525)" fill="#13844B"/>
<rect x="243.321" y="501.733" width="12.2081" height="12.2081" transform="rotate(90 243.321 501.733)" fill="#13844B"/>
<rect x="243.321" y="513.941" width="12.2081" height="12.2081" transform="rotate(90 243.321 513.941)" fill="#13844B"/>
<rect x="243.321" y="489.525" width="12.2081" height="12.2081" transform="rotate(90 243.321 489.525)" fill="#13844B"/>
<rect x="255.529" y="501.733" width="12.2081" height="12.2081" transform="rotate(90 255.529 501.733)" fill="#13844B"/>
<rect x="255.529" y="513.941" width="12.2081" height="12.2081" transform="rotate(90 255.529 513.941)" fill="#13844B"/>
<rect x="255.529" y="489.525" width="12.2081" height="12.2081" transform="rotate(90 255.529 489.525)" fill="#13844B"/>
<rect x="267.737" y="501.733" width="12.2081" height="12.2081" transform="rotate(90 267.737 501.733)" fill="#13844B"/>
<rect x="267.737" y="513.941" width="12.2081" height="12.2081" transform="rotate(90 267.737 513.941)" fill="#13844B"/>
<rect x="448.528" y="501.733" width="12.2081" height="12.2081" transform="rotate(90 448.528 501.733)" fill="#13844B"/>
<rect x="448.528" y="513.941" width="12.2081" height="12.2081" transform="rotate(90 448.528 513.941)" fill="#13844B"/>
<rect x="460.738" y="501.733" width="12.2081" height="12.2081" transform="rotate(90 460.738 501.733)" fill="#13844B"/>
<rect x="460.738" y="513.941" width="12.2081" height="12.2081" transform="rotate(90 460.738 513.941)" fill="#13844B"/>
<rect x="460.738" y="489.525" width="12.2081" height="12.2081" transform="rotate(90 460.738 489.525)" fill="#13844B"/>
<rect x="472.946" y="501.733" width="12.2081" height="12.2081" transform="rotate(90 472.946 501.733)" fill="#13844B"/>
<rect x="472.946" y="513.941" width="12.2081" height="12.2081" transform="rotate(90 472.946 513.941)" fill="#13844B"/>
<rect x="472.946" y="489.525" width="12.2081" height="12.2081" transform="rotate(90 472.946 489.525)" fill="#13844B"/>
<rect x="485.154" y="501.733" width="12.2081" height="12.2081" transform="rotate(90 485.154 501.733)" fill="#13844B"/>
<rect x="485.154" y="513.941" width="12.2081" height="12.2081" transform="rotate(90 485.154 513.941)" fill="#13844B"/>
<rect x="485.154" y="489.525" width="12.2081" height="12.2081" transform="rotate(90 485.154 489.525)" fill="#13844B"/>
<rect x="497.36" y="501.733" width="12.2081" height="12.2081" transform="rotate(90 497.36 501.733)" fill="#13844B"/>
<rect x="497.36" y="513.941" width="12.2081" height="12.2081" transform="rotate(90 497.36 513.941)" fill="#13844B"/>
<rect x="497.36" y="489.525" width="12.2081" height="12.2081" transform="rotate(90 497.36 489.525)" fill="#13844B"/>
<rect x="509.57" y="501.733" width="12.2081" height="12.2081" transform="rotate(90 509.57 501.733)" fill="#13844B"/>
<rect x="509.57" y="513.941" width="12.2081" height="12.2081" transform="rotate(90 509.57 513.941)" fill="#13844B"/>
<rect x="304.362" y="501.88" width="12.2081" height="12.2081" fill="#5865F2"/>
<rect width="12.2081" height="12.2081" transform="matrix(-1 0 0 1 414.233 501.88)" fill="#5865F2"/>
<rect x="316.568" y="489.672" width="12.2081" height="12.2081" fill="#5865F2"/>
<rect x="328.774" y="489.672" width="12.2081" height="12.2081" fill="#5865F2"/>
<rect x="340.984" y="489.672" width="12.2081" height="12.2081" fill="#5865F2"/>
<rect x="353.194" y="489.672" width="12.2081" height="12.2081" fill="#5865F2"/>
<rect x="365.4" y="489.672" width="12.2081" height="12.2081" fill="#5865F2"/>
<rect x="377.61" y="489.672" width="12.2081" height="12.2081" fill="#5865F2"/>
<rect width="12.2081" height="12.2081" transform="matrix(-1 0 0 1 402.025 489.672)" fill="#5865F2"/>
<rect x="304.362" y="472.958" width="12.2081" height="16.7145" fill="#5865F2"/>
<rect x="304.362" y="465.137" width="12.2081" height="12.2081" fill="#5865F2"/>
<rect x="365.398" y="465.137" width="12.2081" height="12.2081" fill="#5865F2"/>
<rect x="340.984" y="465.137" width="12.2081" height="12.2081" fill="#5865F2"/>
<rect x="402.025" y="465.137" width="12.2081" height="12.2081" fill="#5865F2"/>
<rect x="328.774" y="465.137" width="12.2081" height="12.2081" fill="#5865F2"/>
<rect x="389.814" y="465.137" width="12.2081" height="12.2081" fill="#5865F2"/>
<rect x="316.568" y="465.137" width="12.2081" height="12.2081" fill="#5865F2"/>
<rect x="377.606" y="465.137" width="12.2081" height="12.2081" fill="#5865F2"/>
<rect x="304.362" y="452.929" width="12.2081" height="12.2081" fill="#5865F2"/>
<rect x="365.398" y="452.929" width="12.2081" height="12.2081" fill="#5865F2"/>
<rect x="340.984" y="452.929" width="12.2081" height="12.2081" fill="#5865F2"/>
<rect x="402.025" y="452.929" width="12.2081" height="12.2081" fill="#5865F2"/>
<rect x="304.362" y="440.721" width="12.2081" height="12.2081" fill="#5865F2"/>
<rect x="365.398" y="440.721" width="12.2081" height="12.2081" fill="#5865F2"/>
<rect x="340.984" y="440.721" width="12.2081" height="12.2081" fill="#5865F2"/>
<rect x="402.025" y="440.721" width="12.2081" height="12.2081" fill="#5865F2"/>
<rect x="304.362" y="428.514" width="12.2081" height="12.2081" fill="#5865F2"/>
<rect x="365.4" y="428.514" width="12.2081" height="12.2081" fill="#5865F2"/>
<rect x="316.568" y="428.514" width="12.2081" height="12.2081" fill="#5865F2"/>
<rect x="377.606" y="428.514" width="12.2081" height="12.2081" fill="#5865F2"/>
<rect x="328.774" y="428.514" width="12.2081" height="12.2081" fill="#5865F2"/>
<rect x="389.814" y="428.514" width="12.2081" height="12.2081" fill="#5865F2"/>
<rect x="340.984" y="428.514" width="12.2081" height="12.2081" fill="#5865F2"/>
<rect x="402.025" y="428.514" width="12.2081" height="12.2081" fill="#5865F2"/>
<rect width="12.2081" height="16.714" transform="matrix(-1 0 0 1 414.233 472.958)" fill="#5865F2"/>
<rect x="292.151" y="477.464" width="12.2081" height="12.2081" fill="#5865F2"/>
<rect width="12.2081" height="12.2081" transform="matrix(-1 0 0 1 426.441 477.464)" fill="#5865F2"/>
<rect x="279.941" y="489.672" width="12.2081" height="12.2081" fill="#5865F2"/>
<rect width="12.2081" height="12.2081" transform="matrix(-1 0 0 1 438.647 489.672)" fill="#5865F2"/>
<rect x="279.941" y="501.895" width="12.2081" height="12.2081" fill="#5865F2"/>
<rect width="12.2081" height="12.2081" transform="matrix(-1 0 0 1 438.647 501.895)" fill="#5865F2"/>
<rect x="292.151" y="501.895" width="12.2081" height="12.2081" fill="#5865F2"/>
<rect width="12.2081" height="12.2081" transform="matrix(-1 0 0 1 426.441 501.895)" fill="#5865F2"/>
<rect x="292.151" y="514.088" width="12.2081" height="12.2081" fill="#5865F2"/>
<rect width="12.2081" height="12.2081" transform="matrix(-1 0 0 1 426.441 514.088)" fill="#5865F2"/>
<rect x="279.941" y="514.088" width="12.2081" height="12.2081" fill="#5865F2"/>
<rect width="12.2081" height="12.2081" transform="matrix(-1 0 0 1 438.647 514.088)" fill="#5865F2"/>
<rect x="267.735" y="514.088" width="12.2081" height="12.2081" fill="#5865F2"/>
<rect width="12.2081" height="12.2081" transform="matrix(-1 0 0 1 450.857 514.088)" fill="#5865F2"/>
<rect x="255.529" y="501.88" width="12.2081" height="12.2081" fill="#5865F2"/>
<rect width="12.2081" height="12.2081" transform="matrix(-1 0 0 1 463.063 501.88)" fill="#5865F2"/>
<rect x="243.319" y="489.672" width="12.2081" height="12.2081" fill="#5865F2"/>
<rect width="12.2081" height="12.2081" transform="matrix(-1 0 0 1 475.273 489.672)" fill="#5865F2"/>
<rect x="243.319" y="477.464" width="12.2081" height="12.2081" fill="#5865F2"/>
<rect width="12.2081" height="12.2081" transform="matrix(-1 0 0 1 475.273 477.464)" fill="#5865F2"/>
<rect x="243.319" y="465.256" width="12.2081" height="12.2081" fill="#5865F2"/>
<rect width="12.2081" height="12.2081" transform="matrix(-1 0 0 1 475.273 465.256)" fill="#5865F2"/>
<rect x="255.529" y="453.048" width="12.2081" height="12.2081" fill="#5865F2"/>
<rect width="12.2081" height="12.2081" transform="matrix(-1 0 0 1 463.063 453.048)" fill="#5865F2"/>
<rect x="255.529" y="440.84" width="12.2081" height="12.2081" fill="#5865F2"/>
<rect width="12.2081" height="12.2081" transform="matrix(-1 0 0 1 463.063 440.84)" fill="#5865F2"/>
<rect x="255.529" y="428.632" width="12.2081" height="12.2081" fill="#5865F2"/>
<rect width="12.2081" height="12.2081" transform="matrix(-1 0 0 1 463.063 428.632)" fill="#5865F2"/>
<rect x="267.735" y="416.424" width="12.2081" height="12.2081" fill="#5865F2"/>
<rect width="12.2081" height="12.2081" transform="matrix(-1 0 0 1 450.857 416.424)" fill="#5865F2"/>
<rect x="267.735" y="404.216" width="12.2081" height="12.2081" fill="#5865F2"/>
<rect x="279.941" y="404.098" width="12.2081" height="12.2081" fill="#5865F2"/>
<rect x="304.362" y="404.216" width="12.2081" height="12.2081" fill="#5865F2"/>
<rect width="12.2081" height="12.2081" transform="matrix(-1 0 0 1 414.233 404.216)" fill="#5865F2"/>
<rect x="316.568" y="404.216" width="12.2081" height="12.2081" fill="#5865F2"/>
<rect width="12.2081" height="12.2081" transform="matrix(-1 0 0 1 402.025 404.216)" fill="#5865F2"/>
<rect x="328.774" y="393.174" width="12.2081" height="12.2081" fill="#5865F2"/>
<rect width="12.2081" height="12.2081" transform="matrix(-1 0 0 1 389.816 393.174)" fill="#5865F2"/>
<rect x="340.984" y="393.174" width="12.2081" height="12.2081" fill="#5865F2"/>
<rect width="12.2081" height="12.2081" transform="matrix(-1 0 0 1 377.606 393.174)" fill="#5865F2"/>
<rect x="353.19" y="393.174" width="12.2081" height="12.2081" fill="#5865F2"/>
<rect width="12.2081" height="12.2081" transform="matrix(-1 0 0 1 365.4 393.174)" fill="#5865F2"/>
<rect x="365.4" y="393.174" width="12.2081" height="12.2081" fill="#5865F2"/>
<rect width="12.2081" height="12.2081" transform="matrix(-1 0 0 1 353.19 393.174)" fill="#5865F2"/>
<rect x="292.151" y="416.306" width="12.2081" height="12.2081" fill="#5865F2"/>
<rect width="12.2081" height="12.2081" transform="matrix(-1 0 0 1 426.441 416.306)" fill="#5865F2"/>
<rect x="279.941" y="416.306" width="12.2081" height="12.2081" fill="#5865F2"/>
<rect width="12.2081" height="12.2081" transform="matrix(-1 0 0 1 438.647 416.306)" fill="#5865F2"/>
<rect x="279.941" y="391.89" width="12.2081" height="12.2081" fill="#5865F2"/>
<rect x="292.151" y="391.89" width="12.2081" height="12.2081" fill="#5865F2"/>
<rect x="292.151" y="379.682" width="12.2081" height="12.2081" fill="#5865F2"/>
<rect x="304.362" y="379.682" width="12.2081" height="12.2081" fill="#5865F2"/>
<rect x="267.736" y="428.514" width="36.6248" height="61.158" fill="#5865F2"/>
<rect width="36.6248" height="61.158" transform="matrix(-1 0 0 1 450.855 428.514)" fill="#5865F2"/>
<rect x="255.527" y="465.256" width="31.4838" height="48.8323" fill="#5865F2"/>
<rect width="31.4838" height="48.8323" transform="matrix(-1 0 0 1 463.065 465.256)" fill="#5865F2"/>
<rect x="316.568" y="475.63" width="85.4553" height="14.042" fill="#5865F2"/>
<rect x="346.31" y="401.714" width="28.8721" height="79.6017" fill="#5865F2"/>
<rect x="304.36" y="405.382" width="109.871" height="27.5541" fill="#5865F2"/>
<rect x="206.696" y="513.941" width="12.2081" height="12.2081" fill="#904E3F"/>
<rect x="206.696" y="501.748" width="12.2081" height="12.2081" fill="#904E3F"/>
<rect x="206.696" y="489.555" width="12.2081" height="12.2081" fill="#904E3F"/>
<rect x="200.59" y="477.347" width="12.2081" height="12.2081" fill="#29CC7A"/>
<rect x="212.8" y="477.347" width="12.2081" height="12.2081" fill="#29CC7A"/>
<rect x="200.59" y="465.138" width="12.2081" height="12.2081" fill="#29CC7A"/>
<rect x="212.8" y="465.138" width="12.2081" height="12.2081" fill="#29CC7A"/>
<rect x="188.384" y="465.138" width="12.2081" height="12.2081" fill="#29CC7A"/>
<rect x="225.01" y="465.138" width="12.2081" height="12.2081" fill="#29CC7A"/>
<rect x="200.59" y="452.93" width="12.2081" height="12.2081" fill="#29CC7A"/>
<rect x="212.8" y="452.93" width="12.2081" height="12.2081" fill="#29CC7A"/>
<rect x="188.384" y="452.93" width="12.2081" height="12.2081" fill="#29CC7A"/>
<rect x="225.01" y="452.93" width="12.2081" height="12.2081" fill="#29CC7A"/>
<rect x="200.59" y="440.722" width="12.2081" height="12.2081" fill="#29CC7A"/>
<rect x="212.8" y="440.722" width="12.2081" height="12.2081" fill="#29CC7A"/>
<rect x="188.384" y="440.722" width="12.2081" height="12.2081" fill="#29CC7A"/>
<rect x="225.01" y="440.722" width="12.2081" height="12.2081" fill="#29CC7A"/>
<rect x="200.59" y="428.514" width="12.2081" height="12.2081" fill="#29CC7A"/>
<rect x="212.8" y="428.514" width="12.2081" height="12.2081" fill="#29CC7A"/>
<rect x="188.384" y="428.514" width="12.2081" height="12.2081" fill="#29CC7A"/>
<rect x="225.01" y="428.514" width="12.2081" height="12.2081" fill="#29CC7A"/>
<rect x="200.59" y="416.306" width="12.2081" height="12.2081" fill="#29CC7A"/>
<rect x="212.8" y="416.306" width="12.2081" height="12.2081" fill="#29CC7A"/>
<path opacity="0.4" d="M200.598 425.343H225.01" stroke="#13844B" stroke-width="5"/>
<path opacity="0.4" d="M200.598 480.413H225.01" stroke="#13844B" stroke-width="5"/>
<path opacity="0.4" d="M188.392 453.048H237.218" stroke="#13844B" stroke-width="5"/>
<path opacity="0.1" d="M267.736 425.342H450.856" stroke="black" stroke-width="5"/>
<path opacity="0.1" d="M255.53 452.929L316.574 452.929M463.066 452.929L402.051 452.929M341.064 452.929L377.62 452.929" stroke="black" stroke-width="5"/>
<path d="M115.687 514.928H103.087C98.6688 514.928 95.0871 518.509 95.0871 522.928V580.688C95.0871 585.107 98.6688 588.688 103.087 588.688H123.493" stroke="#686C8E" stroke-width="11"/>
<path opacity="0.1" d="M255.62 504.909L316.664 504.909M463.155 504.909L402.14 504.909" stroke="black" stroke-width="5"/>
<path opacity="0.1" d="M243.571 479.064L341.065 479.064L402.052 479.063L475.208 479.063" stroke="black" stroke-width="5"/>
<path d="M186.94 241.371L203.372 253.893L195.294 264.494L178.862 251.972C175.638 247.061 181.541 239.556 186.94 241.371Z" fill="black"/>
<path d="M189.486 251.688C201.241 236.263 223.275 233.287 238.7 245.042L250.801 254.262L208.233 310.123L196.133 300.903C180.707 289.148 177.731 267.114 189.486 251.688Z" fill="#686C8E"/>
<path d="M216.467 274.957C236.535 248.622 274.152 243.541 300.487 263.609L321.145 279.351L248.473 374.719L227.815 358.977C201.48 338.909 196.399 301.292 216.467 274.957Z" fill="#9598B1"/>
<ellipse cx="284.809" cy="327.035" rx="37.6327" ry="59.9507" transform="rotate(37.3082 284.809 327.035)" fill="#9598B1"/>
<ellipse cx="284.808" cy="327.035" rx="30.9206" ry="52.1324" transform="rotate(37.3082 284.808 327.035)" fill="black"/>
<path fill-rule="evenodd" clip-rule="evenodd" d="M295.729 360.006C300.544 356.081 305.182 351.314 309.375 345.811C313.384 340.551 316.637 335.076 319.106 329.638C319.004 320.412 314.803 311.327 306.895 305.301C302.787 302.17 298.148 300.223 293.387 299.405C290.338 298.88 287.188 298.515 284.024 298.148C279.753 297.652 275.455 297.154 271.34 296.257C267.419 299.739 263.651 303.783 260.187 308.329C256.584 313.058 253.591 317.96 251.229 322.852C253.157 326.548 254.76 330.516 256.354 334.459C257.547 337.412 258.735 340.352 260.05 343.153C262.102 347.526 265.21 351.483 269.318 354.613C277.139 360.573 286.884 362.243 295.729 360.006Z" fill="#FFE860"/>
<path d="M260.499 338.301C260.763 342.748 261.964 347.222 264.926 350.548C266.231 352.014 267.696 353.377 269.316 354.612C282.933 364.989 302.384 362.362 312.761 348.744C323.137 335.127 320.51 315.676 306.893 305.299C305.365 304.135 303.765 303.135 302.111 302.296C297.946 300.18 293.074 300.27 288.522 301.32C264.577 306.843 259.032 313.519 260.499 338.301Z" fill="#FFF2A6"/>
<path d="M260.499 338.301C260.763 342.748 261.964 347.222 264.926 350.548C266.231 352.014 267.696 353.377 269.316 354.612C282.933 364.989 302.384 362.362 312.761 348.744C323.137 335.127 320.51 315.676 306.893 305.299C305.365 304.135 303.765 303.135 302.111 302.296C297.946 300.18 293.074 300.27 288.522 301.32C264.577 306.843 259.032 313.519 260.499 338.301Z" fill="url(#paint5_linear_840_1558)"/>
<path d="M307.589 344.394C315.357 334.199 313.391 319.637 303.196 311.869" stroke="white" stroke-width="3" stroke-linecap="round"/>
<path fill-rule="evenodd" clip-rule="evenodd" d="M246.059 250.645C233.36 254.451 221.746 262.52 213.069 273.906C212.567 274.564 212.694 275.506 213.353 276.008C214.012 276.51 214.953 276.383 215.456 275.724C224.253 264.179 236.143 256.24 249.048 252.923L246.059 250.645Z" fill="black"/>
<path d="M123.271 488.556C-0.475665 478.964 93.996 622.406 11.877 634.952" stroke="black" stroke-width="7"/>
<circle cx="126.452" cy="489.848" r="14.2177" fill="#9598B1"/>
<rect x="109.343" y="504.139" width="54.7991" height="22.1583" rx="3" fill="black"/>
<path d="M66.2493 400.984C66.5352 399.663 68.4194 399.663 68.7053 400.983L70.9204 411.217C71.8623 415.569 74.7575 419.243 78.768 421.176L80.3034 421.916C81.2511 422.373 81.2511 423.723 80.3034 424.18L78.768 424.92C74.7575 426.854 71.8623 430.528 70.9204 434.879L68.7053 445.113C68.4194 446.434 66.5352 446.434 66.2493 445.113L64.0342 434.879C63.0924 430.528 60.1971 426.854 56.1866 424.92L54.6513 424.18C53.7035 423.723 53.7035 422.373 54.6513 421.916L56.1866 421.176C60.1971 419.243 63.0924 415.569 64.0342 411.217L66.2493 400.984Z" fill="#FFE75C"/>
<path d="M173.62 116.335C173.906 115.014 175.79 115.014 176.076 116.335L178.291 126.569C179.233 130.92 182.128 134.594 186.139 136.528L187.674 137.268C188.622 137.725 188.622 139.075 187.674 139.531L186.139 140.272C182.128 142.205 179.233 145.879 178.291 150.231L176.076 160.464C175.79 161.785 173.906 161.785 173.62 160.464L171.405 150.231C170.463 145.879 167.568 142.205 163.557 140.272L162.022 139.531C161.074 139.075 161.074 137.725 162.022 137.268L163.557 136.528C167.568 134.594 170.463 130.92 171.405 126.569L173.62 116.335Z" fill="#242145"/>
<path d="M65.9061 48.3979C66.2945 46.6037 68.8539 46.6037 69.2423 48.3979L72.2512 62.2993C73.5306 68.2101 77.4635 73.2011 82.9112 75.8273L84.9968 76.8327C86.2842 77.4534 86.2842 79.2869 84.9968 79.9075L82.9112 80.9129C77.4635 83.5391 73.5306 88.5301 72.2512 94.4409L69.2423 108.342C68.8539 110.137 66.2945 110.137 65.9061 108.342L62.8972 94.4409C61.6178 88.5301 57.685 83.5391 52.2372 80.9129L50.1516 79.9075C48.8642 79.2869 48.8642 77.4534 50.1516 76.8327L52.2372 75.8273C57.685 73.2011 61.6178 68.2101 62.8972 62.2993L65.9061 48.3979Z" fill="#EB459F"/>
<path d="M929.773 296.971C930.055 295.671 931.91 295.671 932.192 296.971L934.373 307.049C935.3 311.334 938.151 314.952 942.101 316.856L943.613 317.585C944.546 318.035 944.546 319.364 943.613 319.814L942.101 320.542C938.151 322.446 935.3 326.064 934.373 330.349L932.192 340.427C931.91 341.727 930.055 341.727 929.773 340.427L927.592 330.349C926.664 326.064 923.813 322.446 919.864 320.542L918.352 319.814C917.419 319.364 917.419 318.035 918.352 317.585L919.864 316.856C923.813 314.952 926.664 311.334 927.592 307.049L929.773 296.971Z" fill="#EB459F"/>
<path d="M977.819 44.3432C978.078 43.1453 979.787 43.1453 980.046 44.3432L982.055 53.6241C982.909 57.5703 985.535 60.9023 989.172 62.6557L990.564 63.3269C991.424 63.7412 991.424 64.9653 990.564 65.3797L989.172 66.0509C985.535 67.8042 982.909 71.1363 982.055 75.0825L980.046 84.3634C979.787 85.5613 978.078 85.5613 977.819 84.3634L975.81 75.0825C974.956 71.1363 972.33 67.8042 968.693 66.0509L967.301 65.3797C966.441 64.9653 966.441 63.7412 967.301 63.3269L968.693 62.6557C972.33 60.9023 974.956 57.5703 975.81 53.6241L977.819 44.3432Z" fill="#57F287"/>
<path d="M456.79 146.438C457.148 144.781 459.512 144.781 459.87 146.438L462.649 159.274C463.83 164.732 467.462 169.34 472.492 171.765L474.418 172.694C475.606 173.267 475.606 174.96 474.418 175.533L472.492 176.461C467.462 178.886 463.83 183.495 462.649 188.952L459.87 201.789C459.512 203.445 457.148 203.445 456.79 201.789L454.011 188.952C452.83 183.495 449.199 178.886 444.168 176.461L442.243 175.533C441.054 174.96 441.054 173.267 442.243 172.694L444.168 171.765C449.199 169.34 452.83 164.732 454.011 159.274L456.79 146.438Z" fill="#423D80"/>
</g>
<defs>
<linearGradient id="paint0_linear_840_1558" x1="573.545" y1="396.091" x2="477.123" y2="363.016" gradientUnits="userSpaceOnUse">
<stop stop-color="#3442D9"/>
<stop offset="1" stop-color="#5865F2"/>
</linearGradient>
<linearGradient id="paint1_linear_840_1558" x1="785.354" y1="429.951" x2="769.266" y2="761.086" gradientUnits="userSpaceOnUse">
<stop stop-color="#5865F2"/>
<stop offset="1" stop-color="#808AFF"/>
</linearGradient>
<linearGradient id="paint2_linear_840_1558" x1="732.969" y1="304.864" x2="732.969" y2="635.033" gradientUnits="userSpaceOnUse">
<stop stop-color="#5865F2"/>
<stop offset="1" stop-color="#3442D9"/>
</linearGradient>
<linearGradient id="paint3_linear_840_1558" x1="817.009" y1="149.753" x2="839.616" y2="285.396" gradientUnits="userSpaceOnUse">
<stop offset="0.188622" stop-color="#5865F2"/>
<stop offset="1" stop-color="#3543DA"/>
</linearGradient>
<linearGradient id="paint4_linear_840_1558" x1="780.223" y1="366.515" x2="767.679" y2="446.843" gradientUnits="userSpaceOnUse">
<stop stop-color="#515FEE"/>
<stop offset="0.551319" stop-color="#4D5AEA"/>
<stop offset="1" stop-color="#5865F2"/>
</linearGradient>
<linearGradient id="paint5_linear_840_1558" x1="254.184" y1="302.795" x2="307.144" y2="346.258" gradientUnits="userSpaceOnUse">
<stop offset="0.202581" stop-color="#FFE75C"/>
<stop offset="1" stop-color="#FFF2A6"/>
</linearGradient>
<clipPath id="clip0_840_1558">
<rect width="1024" height="576" fill="white"/>
</clipPath>
</defs>
</svg>
